<svg width="48" height="48" viewBox="0 0 48 48" fill="none" xmlns="http://www.w3.org/2000/svg">
<g filter="url(#filter0_d_1_404)">
<circle cx="24" cy="20" r="20" fill="black"/>
<path d="M24 17.9C23.443 17.9 22.9089 18.1212 22.5151 18.5151C22.1212 18.9089 21.9 19.443 21.9 20C21.9 20.557 22.1212 21.0911 22.5151 21.4849C22.9089 21.8788 23.443 22.1 24 22.1C24.557 22.1 25.0911 21.8788 25.4849 21.4849C25.8788 21.0911 26.1 20.557 26.1 20C26.1 19.443 25.8788 18.9089 25.4849 18.5151C25.0911 18.1212 24.557 17.9 24 17.9ZM24 16.5C24.9283 16.5 25.8185 16.8687 26.4749 17.5251C27.1313 18.1815 27.5 19.0717 27.5 20C27.5 20.9283 27.1313 21.8185 26.4749 22.4749C25.8185 23.1313 24.9283 23.5 24 23.5C23.0717 23.5 22.1815 23.1313 21.5251 22.4749C20.8687 21.8185 20.5 20.9283 20.5 20C20.5 19.0717 20.8687 18.1815 21.5251 17.5251C22.1815 16.8687 23.0717 16.5 24 16.5ZM28.55 16.325C28.55 16.5571 28.4578 16.7796 28.2937 16.9437C28.1296 17.1078 27.9071 17.2 27.675 17.2C27.4429 17.2 27.2204 17.1078 27.0563 16.9437C26.8922 16.7796 26.8 16.5571 26.8 16.325C26.8 16.0929 26.8922 15.8704 27.0563 15.7063C27.2204 15.5422 27.4429 15.45 27.675 15.45C27.9071 15.45 28.1296 15.5422 28.2937 15.7063C28.4578 15.8704 28.55 16.0929 28.55 16.325ZM24 14.4C22.2682 14.4 21.9854 14.4049 21.1797 14.4406C20.6309 14.4665 20.2627 14.54 19.9211 14.673C19.6173 14.7906 19.3982 14.9313 19.1651 15.1651C18.946 15.3768 18.7775 15.6352 18.6723 15.9211C18.5393 16.2641 18.4658 16.6316 18.4406 17.1797C18.4042 17.9525 18.4 18.2227 18.4 20C18.4 21.7318 18.4049 22.0146 18.4406 22.8203C18.4665 23.3684 18.54 23.7373 18.6723 24.0782C18.7913 24.3827 18.9313 24.6018 19.1637 24.8342C19.3996 25.0694 19.6187 25.2101 19.9197 25.3263C20.2655 25.46 20.6337 25.5342 21.1797 25.5594C21.9525 25.5958 22.2227 25.6 24 25.6C25.7318 25.6 26.0146 25.5951 26.8203 25.5594C27.3677 25.5335 27.7366 25.46 28.0782 25.3277C28.3813 25.2094 28.6018 25.0687 28.8342 24.8363C29.0701 24.6004 29.2108 24.3813 29.327 24.0803C29.46 23.7352 29.5342 23.3663 29.5594 22.8203C29.5958 22.0475 29.6 21.7773 29.6 20C29.6 18.2682 29.5951 17.9854 29.5594 17.1797C29.5335 16.6323 29.46 16.2627 29.327 15.9211C29.2215 15.6355 29.0534 15.3772 28.8349 15.1651C28.6233 14.9459 28.3649 14.7774 28.0789 14.6723C27.7359 14.5393 27.3677 14.4658 26.8203 14.4406C26.0475 14.4042 25.7773 14.4 24 14.4ZM24 13C25.9019 13 26.1392 13.007 26.8854 13.042C27.6309 13.077 28.1384 13.1939 28.585 13.3675C29.047 13.5453 29.4362 13.7861 29.8254 14.1746C30.1813 14.5245 30.4568 14.9478 30.6325 15.415C30.8054 15.8609 30.923 16.3691 30.958 17.1146C30.9909 17.8608 31 18.0981 31 20C31 21.9019 30.993 22.1392 30.958 22.8854C30.923 23.6309 30.8054 24.1384 30.6325 24.585C30.4573 25.0524 30.1818 25.4758 29.8254 25.8254C29.4754 26.1812 29.0521 26.4566 28.585 26.6325C28.1391 26.8054 27.6309 26.923 26.8854 26.958C26.1392 26.9909 25.9019 27 24 27C22.0981 27 21.8608 26.993 21.1146 26.958C20.3691 26.923 19.8616 26.8054 19.415 26.6325C18.9476 26.4571 18.5243 26.1817 18.1746 25.8254C17.8186 25.4755 17.5432 25.0522 17.3675 24.585C17.1939 24.1391 17.077 23.6309 17.042 22.8854C17.0091 22.1392 17 21.9019 17 20C17 18.0981 17.007 17.8608 17.042 17.1146C17.077 16.3684 17.1939 15.8616 17.3675 15.415C17.5427 14.9475 17.8182 14.5241 18.1746 14.1746C18.5244 13.8185 18.9477 13.543 19.415 13.3675C19.8616 13.1939 20.3684 13.077 21.1146 13.042C21.8608 13.0091 22.0981 13 24 13Z" fill="white"/>
</g>
<defs>
<filter id="filter0_d_1_404" x="0" y="0" width="48" height="48" filterUnits="userSpaceOnUse" color-interpolation-filters="sRGB">
<feFlood flood-opacity="0" result="BackgroundImageFix"/>
<feColorMatrix in="SourceAlpha" type="matrix" values="0 0 0 0 0 0 0 0 0 0 0 0 0 0 0 0 0 0 127 0" result="hardAlpha"/>
<feOffset dy="4"/>
<feGaussianBlur stdDeviation="2"/>
<feComposite in2="hardAlpha" operator="out"/>
<feColorMatrix type="matrix" values="0 0 0 0 0 0 0 0 0 0 0 0 0 0 0 0 0 0 0.25 0"/>
<feBlend mode="normal" in2="BackgroundImageFix" result="effect1_dropShadow_1_404"/>
<feBlend mode="normal" in="SourceGraphic" in2="effect1_dropShadow_1_404" result="shape"/>
</filter>
</defs>
</svg>
